HIERARCHY
ROOT Hips
{
	OFFSET 0.00000 0.00000 0.00000
	CHANNELS 6 Xposition Yposition Zposition Zrotation Yrotation Xrotation 
	JOINT LHipJoint
	{
		OFFSET 0 0 0
		CHANNELS 3 Zrotation Yrotation Xrotation
		JOINT LeftUpLeg
		{
			OFFSET 1.17584 -1.63585 1.00361
			CHANNELS 3 Zrotation Yrotation Xrotation
			JOINT LeftLeg
			{
				OFFSET 2.23889 -6.15131 0.00000
				CHANNELS 3 Zrotation Yrotation Xrotation
				JOINT LeftFoot
				{
					OFFSET 2.65161 -7.28525 0.00000
					CHANNELS 3 Zrotation Yrotation Xrotation
					JOINT LeftToeBase
					{
						OFFSET 0.24898 -0.68407 1.57235
						CHANNELS 3 Zrotation Yrotation Xrotation
						End Site
						{
							OFFSET 0.00000 -0.00000 0.85838
						}
					}
				}
			}
		}
	}
	JOINT RHipJoint
	{
		OFFSET 0 0 0
		CHANNELS 3 Zrotation Yrotation Xrotation
		JOINT RightUpLeg
		{
			OFFSET -1.15592 -1.63585 1.00361
			CHANNELS 3 Zrotation Yrotation Xrotation
			JOINT RightLeg
			{
				OFFSET -2.34071 -6.43104 0.00000
				CHANNELS 3 Zrotation Yrotation Xrotation
				JOINT RightFoot
				{
					OFFSET -2.59113 -7.11908 0.00000
					CHANNELS 3 Zrotation Yrotation Xrotation
					JOINT RightToeBase
					{
						OFFSET -0.17867 -0.49089 1.70981
						CHANNELS 3 Zrotation Yrotation Xrotation
						End Site
						{
							OFFSET -0.00000 -0.00000 0.89861
						}
					}
				}
			}
		}
	}
	JOINT LowerBack
	{
		OFFSET 0 0 0
		CHANNELS 3 Zrotation Yrotation Xrotation
		JOINT Spine
		{
			OFFSET -0.02255 1.90764 -0.16605
			CHANNELS 3 Zrotation Yrotation Xrotation
			JOINT Spine1
			{
				OFFSET -0.00365 1.92150 -0.04898
				CHANNELS 3 Zrotation Yrotation Xrotation
				JOINT Neck
				{
					OFFSET 0 0 0
					CHANNELS 3 Zrotation Yrotation Xrotation
					JOINT Neck1
					{
						OFFSET 0.00372 1.59170 0.08694
						CHANNELS 3 Zrotation Yrotation Xrotation
						JOINT Head
						{
							OFFSET 0.12558 1.58643 -0.08078
							CHANNELS 3 Zrotation Yrotation Xrotation
							End Site
							{
								OFFSET 0.04211 1.60835 -0.03803
							}
						}
					}
				}
				JOINT LeftShoulder
				{
					OFFSET 0 0 0
					CHANNELS 3 Zrotation Yrotation Xrotation
					JOINT LeftArm
					{
						OFFSET 3.69324 0.96316 0.19077
						CHANNELS 3 Zrotation Yrotation Xrotation
						JOINT LeftForeArm
						{
							OFFSET 4.87796 -0.00000 -0.00000
							CHANNELS 3 Zrotation Yrotation Xrotation
							JOINT LeftHand
							{
								OFFSET 3.23169 -0.00000 0.00000
								CHANNELS 3 Zrotation Yrotation Xrotation
								JOINT LeftFingerBase
								{
									OFFSET 0 0 0
									CHANNELS 3 Zrotation Yrotation Xrotation
									JOINT LeftHandIndex1
									{
										OFFSET 0.73132 -0.00000 0.00000
										CHANNELS 3 Zrotation Yrotation Xrotation
										End Site
										{
											OFFSET 0.58961 -0.00000 0.00000
										}
									}
								}
								JOINT LThumb
								{
									OFFSET 0 0 0
									CHANNELS 3 Zrotation Yrotation Xrotation
									End Site
									{
										OFFSET 0.59861 -0.00000 0.59861
									}
								}
							}
						}
					}
				}
				JOINT RightShoulder
				{
					OFFSET 0 0 0
					CHANNELS 3 Zrotation Yrotation Xrotation
					JOINT RightArm
					{
						OFFSET -3.66103 0.75145 0.08281
						CHANNELS 3 Zrotation Yrotation Xrotation
						JOINT RightForeArm
						{
							OFFSET -4.91430 -0.00000 0.00000
							CHANNELS 3 Zrotation Yrotation Xrotation
							JOINT RightHand
							{
								OFFSET -3.29093 -0.00000 0.00000
								CHANNELS 3 Zrotation Yrotation Xrotation
								JOINT RightFingerBase
								{
									OFFSET 0 0 0
									CHANNELS 3 Zrotation Yrotation Xrotation
									JOINT RightHandIndex1
									{
										OFFSET -0.54512 -0.00000 0.00000
										CHANNELS 3 Zrotation Yrotation Xrotation
										End Site
										{
											OFFSET -0.43949 -0.00000 0.00000
										}
									}
								}
								JOINT RThumb
								{
									OFFSET 0 0 0
									CHANNELS 3 Zrotation Yrotation Xrotation
									End Site
									{
										OFFSET -0.44620 -0.00000 0.44620
									}
								}
							}
						}
					}
				}
			}
		}
	}
}
MOTION
Frames: 12
Frame Time: .0083333
17.9769 16.3298 0.109 0 0 0 0 0 0 -21 0 0 0 0 0 0 0 0 0 0 0 0 0 0 21 0 0 0 0 0 0 0 0 0 0 0 0 0 0 0 0 0 0 0 0 0 0 -16 0 0 21 0 0 11 0 0 0 -8 0 0 0 0 0 0 0 0 0 0 0 0 0 0 0 0 0 0 0 0 8 0 0 0 0 0 0 0 0 0 0 0 0 0 0 0 0 0
17.9769 16.3298 0.1090 28.7041 -86.9432 -26.6043 0.0000 0.0000 0.0000 -10.5071 -3.3309 -11.4353 2.6593 10.1220 29.3726 1.8231 13.4834 -33.3714 2.1188 -9.1092 -26.1377 0.0000 0.0000 0.0000 9.4819 7.1412 -10.6243 -3.3085 -11.1785 32.8843 -1.6452 -13.2131 -32.0993 -0.2513 3.2254 -8.9069 -2.5570 -1.7425 -8.9314 0.5454 -2.0712 3.5368 1.6746 -1.1737 8.8949 -5.8884 1.7648 -3.0858 2.6323 1.6956 25.0646 1.9717 0.1833 8.1645 0.0000 -0.0000 0.0000 -90.4384 -1.6623 22.4895 40.1695 -48.1700 -18.5654 -0.0000 -0.0000 11.4841 41.5004 -28.9494 -23.1829 -7.1250 0.0000 -0.0000 6.0838 -6.2856 -6.7496 0.0000 -0.0000 0.0000 83.1364 -0.7726 42.5929 -40.4064 48.3088 -18.7421 0.0000 -0.0000 -17.0822 -20.0509 -38.6397 12.8384 7.1250 -0.0000 -0.0000 21.6507 -69.2552 -12.7914
17.9785 16.3317 0.1110 30.9479 -86.8952 -28.8300 0.0000 0.0000 0.0000 -10.6558 -3.3778 -11.3851 2.6513 10.1079 29.3269 1.8551 13.3446 -33.4470 2.0229 -8.9137 -25.5257 0.0000 0.0000 0.0000 9.3046 7.0349 -10.6947 -3.3123 -11.1842 32.9037 -1.6248 -13.1649 -31.9361 -0.2644 3.3077 -9.1366 -2.6678 -1.7225 -9.0133 0.5157 -2.0260 3.5856 1.7100 -1.1587 8.9970 -5.7889 1.7073 -3.5453 2.4604 1.6696 25.4084 1.9044 0.1578 8.3708 0.0000 0.0000 0.0000 -90.4816 -1.8625 22.5295 39.9903 -48.0641 -18.4320 -0.0000 -0.0000 11.4633 41.5552 -29.0053 -23.2594 -7.1250 0.0000 -0.0000 6.0999 -6.3705 -6.7756 0.0000 0.0000 0.0000 83.1342 -0.6052 42.2581 -40.3146 48.2552 -18.6736 0.0000 -0.0000 -16.1147 -30.3092 -30.2018 16.3868 7.1250 -0.0000 -0.0000 1.0982 -63.9648 -0.5048
17.9791 16.3312 0.1111 30.6540 -86.9197 -28.5513 0.0000 0.0000 0.0000 -10.6176 -3.3560 -11.3794 2.6528 10.1106 29.3357 1.8772 13.2161 -33.4737 1.9821 -8.8288 -25.2611 0.0000 0.0000 0.0000 9.3323 7.0264 -10.6770 -3.3098 -11.1805 32.8909 -1.5993 -13.2191 -31.8241 -0.2763 3.3811 -9.3416 -2.7080 -1.7267 -9.0709 0.5582 -2.0286 3.6367 1.7751 -1.1654 9.0902 -5.9303 1.6942 -3.3699 2.5540 1.6447 25.1596 1.9533 0.1496 8.2524 0.0000 -0.0000 0.0000 -90.5351 -1.9110 22.5475 40.0271 -48.0860 -18.4594 -0.0000 -0.0000 11.4414 41.5240 -28.9584 -23.2059 -7.1250 0.0000 -0.0000 6.0946 -6.3050 -6.7635 0.0000 -0.0000 0.0000 83.0956 -0.4774 41.9907 -40.2684 48.2281 -18.6391 0.0000 -0.0000 -15.1715 -38.0854 -21.8998 16.2939 7.1250 -0.0000 -0.0000 -10.4125 -56.7307 3.0165
17.9791 16.3306 0.1103 29.4067 -86.9700 -27.3385 0.0000 0.0000 0.0000 -10.5252 -3.3065 -11.3588 2.6526 10.1102 29.3343 1.8590 13.2768 -33.4163 2.0103 -8.8875 -25.4441 0.0000 0.0000 0.0000 9.4401 7.0673 -10.6254 -3.3084 -11.1784 32.8838 -1.6250 -13.1744 -31.9453 -0.2610 3.2865 -9.0775 -2.6795 -1.7189 -9.1098 0.6041 -2.0248 3.6685 1.8072 -1.1646 9.1482 -5.9051 1.6899 -3.2840 2.4952 1.6440 25.0935 1.9275 0.1475 8.2155 -0.0000 0.0000 0.0000 -90.5804 -1.9756 22.5353 39.9800 -48.0580 -18.4244 -0.0000 -0.0000 11.4499 41.4376 -28.9725 -23.1521 -7.1250 0.0000 -0.0000 6.0432 -6.2875 -6.7042 -0.0000 0.0000 0.0000 83.0667 -0.4310 41.7338 -40.2784 48.2340 -18.6466 0.0000 -0.0000 -14.2360 -43.6438 -15.0390 13.8999 7.1250 -0.0000 -0.0000 -16.0939 -49.6551 1.8908
17.9799 16.3306 0.1100 29.1607 -86.9825 -27.1018 0.0000 0.0000 0.0000 -10.5034 -3.2945 -11.3603 2.6541 10.1128 29.3427 1.8599 13.2653 -33.4122 2.0042 -8.8749 -25.4046 0.0000 0.0000 0.0000 9.4601 7.0634 -10.6164 -3.3063 -11.1751 32.8728 -1.6252 -13.1662 -31.9395 -0.2549 3.2486 -8.9716 -2.6843 -1.7146 -9.1316 0.6179 -2.0191 3.6862 1.8247 -1.1632 9.1809 -5.9264 1.6729 -3.2629 2.4898 1.6244 25.0540 1.9272 0.1371 8.1991 0.0000 -0.0000 0.0000 -90.6035 -2.0158 22.5417 39.9540 -48.0426 -18.4051 -0.0000 -0.0000 11.4372 41.4124 -28.9912 -23.1460 -7.1250 0.0000 -0.0000 6.0244 -6.2991 -6.6843 0.0000 -0.0000 0.0000 83.0657 -0.3617 41.4727 -40.2569 48.2214 -18.6306 0.0000 -0.0000 -13.3015 -46.4519 -11.6487 11.9921 7.1250 -0.0000 -0.0000 -18.2663 -45.8038 0.3749
17.9808 16.3306 0.1096 29.0136 -86.9855 -26.9594 0.0000 0.0000 0.0000 -10.4926 -3.2856 -11.3682 2.6548 10.1140 29.3468 1.8573 13.2747 -33.4049 2.0052 -8.8770 -25.4112 0.0000 0.0000 0.0000 9.4692 7.0543 -10.6151 -3.3047 -11.1727 32.8647 -1.6281 -13.1494 -31.9434 -0.2460 3.1917 -8.8129 -2.6944 -1.7136 -9.1438 0.6263 -2.0170 3.6972 1.8393 -1.1634 9.2007 -5.9618 1.6573 -3.2262 2.5021 1.6035 25.0009 1.9348 0.1269 8.1749 -0.0000 -0.0000 0.0000 -90.6198 -2.0417 22.5477 39.9396 -48.0341 -18.3943 -0.0000 -0.0000 11.4186 41.3960 -29.0107 -23.1467 -7.1250 0.0000 -0.0000 6.0104 -6.3149 -6.6700 -0.0000 -0.0000 0.0000 83.0801 -0.2584 40.9556 -40.1271 48.1450 -18.5338 0.0000 -0.0000 -11.4510 -47.2350 -10.7665 11.4190 7.1250 -0.0000 -0.0000 -18.8138 -44.7610 -0.1152
17.9820 16.3307 0.1093 29.1831 -86.9762 -27.1269 0.0000 0.0000 0.0000 -10.5067 -3.2858 -11.3774 2.6541 10.1129 29.3432 1.8532 13.2994 -33.4004 2.0062 -8.8790 -25.4175 0.0000 0.0000 0.0000 9.4517 7.0318 -10.6280 -3.3044 -11.1722 32.8628 -1.6322 -13.1189 -31.9440 -0.2371 3.1335 -8.6507 -2.7225 -1.7146 -9.1587 0.6285 -2.0145 3.7070 1.8574 -1.1643 9.2214 -6.0011 1.6399 -3.2183 2.5177 1.5815 24.9693 1.9447 0.1156 8.1633 -0.0000 -0.0000 0.0000 -90.6336 -2.0728 22.5557 39.9206 -48.0228 -18.3802 -0.0000 -0.0000 11.3959 41.3925 -29.0283 -23.1557 -7.1250 0.0000 -0.0000 6.0039 -6.3336 -6.6645 -0.0000 -0.0000 0.0000 83.1016 -0.1248 40.2493 -39.9203 48.0226 -18.3799 0.0000 -0.0000 -8.9628 -46.6218 -11.5034 11.9172 7.1250 -0.0000 -0.0000 -18.3994 -45.6413 0.3015
17.9833 16.3308 0.1091 29.5784 -86.9594 -27.5151 0.0000 0.0000 0.0000 -10.5375 -3.2972 -11.3862 2.6532 10.1112 29.3377 1.8502 13.3250 -33.4033 2.0016 -8.8694 -25.3876 0.0000 0.0000 0.0000 9.4165 7.0028 -10.6486 -3.3045 -11.1724 32.8636 -1.6342 -13.0882 -31.9310 -0.2314 3.0960 -8.5461 -2.7661 -1.7171 -9.1810 0.6281 -2.0116 3.7196 1.8812 -1.1659 9.2498 -6.0522 1.6214 -3.2329 2.5427 1.5589 24.9497 1.9600 0.1038 8.1597 0.0000 -0.0000 0.0000 -90.6463 -2.1125 22.5651 39.8980 -48.0094 -18.3634 -0.0000 -0.0000 11.3729 41.4013 -29.0347 -23.1662 -7.1250 0.0000 -0.0000 6.0072 -6.3443 -6.6691 0.0000 -0.0000 0.0000 83.1255 0.0411 39.3721 -39.6464 47.8590 -18.1766 0.0000 -0.0000 -5.9347 -44.7295 -13.2901 12.8287 7.1250 -0.0000 -0.0000 -16.8942 -47.6312 1.1273
17.9844 16.3309 0.1089 30.0458 -86.9429 -27.9770 0.0000 0.0000 0.0000 -10.5727 -3.3148 -11.3866 2.6518 10.1089 29.3300 1.8486 13.3483 -33.4121 1.9947 -8.8550 -25.3427 0.0000 0.0000 0.0000 9.3787 6.9794 -10.6647 -3.3052 -11.1735 32.8672 -1.6365 -13.0581 -31.9204 -0.2283 3.0754 -8.4888 -2.8200 -1.7194 -9.2112 0.6310 -2.0072 3.7395 1.9143 -1.1679 9.2916 -6.1142 1.6034 -3.2660 2.5734 1.5387 24.9381 1.9797 0.0926 8.1619 -0.0000 0.0000 0.0000 -90.6623 -2.1659 22.5766 39.8713 -47.9935 -18.3436 -0.0000 -0.0000 11.3544 41.4182 -29.0219 -23.1702 -7.1250 0.0000 -0.0000 6.0198 -6.3362 -6.6826 -0.0000 0.0000 0.0000 83.1409 0.2231 38.4433 -39.3572 47.6844 -17.9624 0.0000 -0.0000 -2.8178 -42.5107 -14.7828 13.1645 7.1250 -0.0000 -0.0000 -14.8552 -49.0929 1.5301
17.9853 16.3308 0.1088 30.4709 -86.9338 -28.4019 0.0000 0.0000 0.0000 -10.6021 -3.3338 -11.3743 2.6501 10.1058 29.3200 1.8484 13.3678 -33.4263 1.9904 -8.8461 -25.3150 0.0000 0.0000 0.0000 9.3494 6.9673 -10.6716 -3.3065 -11.1754 32.8738 -1.6404 -13.0267 -31.9192 -0.2270 3.0668 -8.4649 -2.8714 -1.7184 -9.2482 0.6368 -1.9987 3.7667 1.9496 -1.1681 9.3450 -6.1811 1.5863 -3.3172 2.6081 1.5203 24.9416 2.0020 0.0819 8.1724 0.0000 -0.0000 0.0000 -90.6787 -2.2309 22.5895 39.8380 -47.9736 -18.3188 -0.0000 -0.0000 11.3475 41.4352 -28.9933 -23.1640 -7.1250 0.0000 -0.0000 6.0366 -6.3104 -6.6990 0.0000 -0.0000 0.0000 83.1475 0.3885 37.6312 -39.1171 47.5380 -17.7851 0.0000 -0.0000 -0.1844 -40.4237 -15.7564 13.0234 7.1250 -0.0000 -0.0000 -12.7819 -49.8808 1.5605
17.9860 16.3306 0.1085 30.7880 -86.9293 -28.7255 0.0000 0.0000 0.0000 -10.6230 -3.3490 -11.3515 2.6480 10.1022 29.3083 1.8494 13.3764 -33.4387 1.9887 -8.8426 -25.3041 0.0000 0.0000 0.0000 9.3306 6.9608 -10.6702 -3.3082 -11.1781 32.8827 -1.6453 -12.9974 -31.9252 -0.2267 3.0646 -8.4587 -2.9053 -1.7166 -9.2740 0.6385 -1.9913 3.7905 1.9709 -1.1674 9.3874 -6.2420 1.5736 -3.3827 2.6410 1.5082 24.9665 2.0235 0.0739 8.1925 0.0000 -0.0000 0.0000 -90.6857 -2.2838 22.5971 39.8065 -47.9549 -18.2954 -0.0000 -0.0000 11.3492 41.4513 -28.9573 -23.1522 -7.1250 0.0000 -0.0000 6.0546 -6.2756 -6.7160 0.0000 -0.0000 0.0000 83.1549 0.5068 37.0649 -38.9570 47.4397 -17.6671 0.0000 0.0000 1.6141 -38.8882 -16.2607 12.7264 7.1250 -0.0000 -0.0000 -11.2059 -50.1873 1.4487
